<?xml version="1.0" encoding="utf-8"?>
<!-- Uploaded to: SVG Repo, www.svgrepo.com, Generator: SVG Repo Mixer Tools -->
<!DOCTYPE svg PUBLIC "-//W3C//DTD SVG 1.1//EN" "http://www.w3.org/Graphics/SVG/1.1/DTD/svg11.dtd">
<svg fill="#000000" width="800px" height="800px" viewBox="0 0 1000 1000" version="1.1" xmlns="http://www.w3.org/2000/svg" xmlns:xlink="http://www.w3.org/1999/xlink"  enable-background="new 0 0 1000 1000" xml:space="preserve">

<g>
<g transform="translate(0.000000,511.000000) scale(0.100000,-0.100000)">
<path d="M6144.1,4829.9c-24-24-75.9-101.8-111.8-169.7c-141.8-253.6-405.3-481.2-670.9-581c-151.7-55.9-395.3-71.9-587-39.9c-339.4,57.9-666.9,305.5-832.6,629l-81.9,159.7l-93.8,6l-95.8,6l-221.6-219.6l-223.6-219.6L2795.6,4183c-235.6-121.8-461.2-229.6-501.2-241.6c-197.7-61.9-485.2-467.2-714.8-1004.3c-267.6-625-455.3-1357.8-730.8-2873.3c-219.6-1198-589-3502.2-589-3666c0-149.8,6-153.8,776.7-265.6c377.4-53.9,706.8-93.8,732.8-87.9c24,6,57.9,26,73.9,43.9c16,20,121.8,327.5,235.6,688.9c113.8,359.4,211.7,642.9,219.6,629c6-14,18-65.9,26-115.8c34-229.6,197.7-850.6,233.6-888.5c37.9-39.9,67.9-39.9,2406-45.9l2366.1-4l45.9,45.9c35.9,35.9,67.9,133.8,137.8,425.3c49.9,207.7,101.8,433.3,115.8,503.2c12,69.9,29.9,119.8,37.9,109.8c8-8,103.8-299.5,211.6-644.9c211.7-672.9,233.6-718.8,349.4-718.8c36,0,371.4,35.9,744.8,79.9c760.7,89.9,750.8,87.9,750.8,241.6c0,159.7-357.4,2404.1-559.1,3522.2c-301.5,1661.3-497.2,2440-776.7,3090.9c-235.6,551.1-465.2,836.6-830.6,1030.3c-836.6,445.3-794.7,419.3-1026.3,637C6287.8,4899.8,6229.9,4923.8,6144.1,4829.9z M3815.9,4314.8c141.8-209.7,331.5-381.4,521.1-471.2c229.6-109.8,343.4-133.8,635-131.8c535.1,4,870.6,171.7,1180.1,589l101.8,137.8l107.8-75.9c57.9-39.9,107.8-81.9,107.8-89.9c0-30-217.7-311.5-327.5-421.3c-311.5-309.5-722.8-471.2-1210-471.2c-662.9,0-1064.2,229.6-1389.7,794.7l-37.9,67.9l109.8,95.8c59.9,53.9,111.8,99.8,113.8,99.8C3730,4438.6,3770,4382.7,3815.9,4314.8z M7054.6,3927.4c165.7-83.8,307.5-155.7,311.5-159.7c4-2-26-79.9-63.9-171.7c-285.5-672.9-381.4-1543.5-253.6-2312.2c22-137.8,91.8-451.3,151.7-698.9C7370-109.9,7481.9-691,7497.8-952.5c28-521.2-71.9-1353.8-261.6-2160.4l-51.9-215.6H4992H2799.6l-59.9,255.6C2609.9-2526,2528-1996.8,2494.1-1471.7c-37.9,593-28,660.9,379.4,2426c201.7,876.5,151.8,1635.3-167.7,2513.9c-49.9,139.8-85.9,261.6-79.9,267.6c6,8,157.7,81.9,333.5,165.7l323.5,153.8l83.9-141.8c217.6-375.4,597-656.9,1036.3-770.7c629-165.7,1313.8-51.9,1769.1,293.5c153.8,117.8,273.6,249.6,433.3,477.2c61.9,89.8,119.8,163.7,129.8,165.7C6743.1,4079.2,6886.8,4011.3,7054.6,3927.4z M2392.2,3404.3c229.6-601,315.5-1154.1,279.5-1785.1c-16-271.5-109.8-786.7-213.6-1154.1c-209.7-752.8-301.5-1441.6-261.6-1958.8c12-157.7,28-293.5,31.9-301.5c8-12-477.2-1473.6-591-1785l-16-39.9l-501.2,61.9c-275.6,34-505.2,67.9-511.2,73.9c-14,12,111.8,828.6,311.5,2022.7c519.1,3126.9,818.7,4265,1283.9,4897.9c49.9,67.9,99.8,123.8,109.8,123.8C2324.3,3560,2360.3,3490.1,2392.2,3404.3z M7789.4,3416.3c321.5-451.3,573-1202,834.6-2473.9c233.6-1148.1,784.7-4392.8,750.8-4426.7c-16-16-1008.3-137.8-1016.3-125.8c-4,6-133.8,407.3-287.5,890.5l-281.5,878.6l12,429.3c6,255.6,2,531.1-12,684.9c-26,291.5-113.8,768.7-201.7,1080.2c-191.7,678.9-259.6,1054.3-273.6,1495.5c-14,433.3,10,682.9,95.8,1036.3c75.9,315.5,213.6,674.9,257.6,674.9C7677.5,3560,7733.4,3494.1,7789.4,3416.3z"/>
<path d="M219.8-4201.2c-61.9-22-119.8-93.9-119.8-145.8c0-73.9,83.9-151.7,175.7-165.7c39.9-6,353.4-45.9,694.9-85.9c593-71.9,625-73.9,674.9-41.9c99.8,67.9,93.8,215.6-14,263.6c-33.9,16-337.5,59.9-672.9,99.8c-335.4,39.9-631,73.9-658.9,79.9C271.7-4193.2,235.8-4195.2,219.8-4201.2z"/>
<path d="M9021.3-4277.1c-750.8-91.8-754.8-93.8-754.8-233.6c0-49.9,14-89.9,41.9-117.8c51.9-51.9,61.9-49.9,934.5,57.9c575.1,71.9,587,75.9,627,127.8c28,35.9,35.9,67.9,26,105.8c-17.9,73.9-99.8,149.8-155.7,147.8C9714.2-4191.2,9390.7-4229.1,9021.3-4277.1z"/>
</g>
</g>
</svg>